# xmcd
#
# Track frame offsets: 
#        150
#        45165
#        84022
#        108498
#        176162
#
# Disc length: 2826 seconds
#
# Revision: 0
# Processed by: cddbd v1.5.2PL0 Copyright (c) Steve Scherf et al.
# Submitted via: ExactAudioCopy v0.99pb5
#
DISCID=2e0b0805
DTITLE=La Renga - Trueno Tierra - Cd 02
DYEAR=2006
DGENRE=rock
TTITLE0=Alunizando Al Unisono
TTITLE1=Sustancia Entre Las Plantas
TTITLE2=Truenotierra
TTITLE3=Anaximandro
TTITLE4=Neuronas Abrazadas
EXTD=
EXTT0=
EXTT1=
EXTT2=
EXTT3=
EXTT4=
PLAYORDER=
